<mxfile host="app.diagrams.net" modified="2023-03-18T21:27:14.843Z" agent="5.0 (X11)" etag="8AlVs95miIAWAcGcIdJu" version="21.0.8" type="github">
  <diagram id="R2lEEEUBdFMjLlhIrx00" name="Page-1">
    <mxGraphModel dx="1728" dy="935" grid="1" gridSize="10" guides="1" tooltips="1" connect="1" arrows="1" fold="1" page="1" pageScale="1" pageWidth="850" pageHeight="1100" math="0" shadow="0" extFonts="Permanent Marker^https://fonts.googleapis.com/css?family=Permanent+Marker">
      <root>
        <mxCell id="0" />
        <mxCell id="1" parent="0" />
        <mxCell id="AVxkR-Yl-Eb912hp2TKM-152" value="" style="endArrow=none;html=1;rounded=0;exitX=0.995;exitY=-0.021;exitDx=0;exitDy=0;exitPerimeter=0;entryX=0.613;entryY=1;entryDx=0;entryDy=0;entryPerimeter=0;" edge="1" parent="1" source="AVxkR-Yl-Eb912hp2TKM-145" target="AVxkR-Yl-Eb912hp2TKM-55">
          <mxGeometry width="50" height="50" relative="1" as="geometry">
            <mxPoint x="40" y="890" as="sourcePoint" />
            <mxPoint x="90" y="220" as="targetPoint" />
          </mxGeometry>
        </mxCell>
        <mxCell id="AVxkR-Yl-Eb912hp2TKM-44" value="" style="rounded=0;whiteSpace=wrap;html=1;dashed=1;" vertex="1" parent="1">
          <mxGeometry x="400" y="280" width="220" height="60" as="geometry" />
        </mxCell>
        <mxCell id="AVxkR-Yl-Eb912hp2TKM-43" value="" style="rounded=0;whiteSpace=wrap;html=1;dashed=1;" vertex="1" parent="1">
          <mxGeometry x="300" y="160" width="450" height="60" as="geometry" />
        </mxCell>
        <mxCell id="AVxkR-Yl-Eb912hp2TKM-1" value="" style="shape=table;startSize=0;container=1;collapsible=0;childLayout=tableLayout;fontSize=16;" vertex="1" parent="1">
          <mxGeometry x="300" y="170" width="230" height="40" as="geometry" />
        </mxCell>
        <mxCell id="AVxkR-Yl-Eb912hp2TKM-2" value="" style="shape=tableRow;horizontal=0;startSize=0;swimlaneHead=0;swimlaneBody=0;strokeColor=inherit;top=0;left=0;bottom=0;right=0;collapsible=0;dropTarget=0;fillColor=none;points=[[0,0.5],[1,0.5]];portConstraint=eastwest;fontSize=16;" vertex="1" parent="AVxkR-Yl-Eb912hp2TKM-1">
          <mxGeometry width="230" height="40" as="geometry" />
        </mxCell>
        <mxCell id="AVxkR-Yl-Eb912hp2TKM-39" value="N" style="shape=partialRectangle;html=1;whiteSpace=wrap;connectable=0;strokeColor=inherit;overflow=hidden;fillColor=none;top=0;left=0;bottom=0;right=0;pointerEvents=1;fontSize=16;" vertex="1" parent="AVxkR-Yl-Eb912hp2TKM-2">
          <mxGeometry width="50" height="40" as="geometry">
            <mxRectangle width="50" height="40" as="alternateBounds" />
          </mxGeometry>
        </mxCell>
        <mxCell id="AVxkR-Yl-Eb912hp2TKM-3" value="OpId" style="shape=partialRectangle;html=1;whiteSpace=wrap;connectable=0;strokeColor=inherit;overflow=hidden;fillColor=none;top=0;left=0;bottom=0;right=0;pointerEvents=1;fontSize=16;" vertex="1" parent="AVxkR-Yl-Eb912hp2TKM-2">
          <mxGeometry x="50" width="50" height="40" as="geometry">
            <mxRectangle width="50" height="40" as="alternateBounds" />
          </mxGeometry>
        </mxCell>
        <mxCell id="AVxkR-Yl-Eb912hp2TKM-4" value="BundleItem" style="shape=partialRectangle;html=1;whiteSpace=wrap;connectable=0;strokeColor=inherit;overflow=hidden;fillColor=none;top=0;left=0;bottom=0;right=0;pointerEvents=1;fontSize=16;" vertex="1" parent="AVxkR-Yl-Eb912hp2TKM-2">
          <mxGeometry x="100" width="130" height="40" as="geometry">
            <mxRectangle width="130" height="40" as="alternateBounds" />
          </mxGeometry>
        </mxCell>
        <mxCell id="AVxkR-Yl-Eb912hp2TKM-23" value="" style="shape=table;startSize=0;container=1;collapsible=0;childLayout=tableLayout;fontSize=16;" vertex="1" parent="1">
          <mxGeometry x="531" y="170" width="219" height="40" as="geometry" />
        </mxCell>
        <mxCell id="AVxkR-Yl-Eb912hp2TKM-24" value="" style="shape=tableRow;horizontal=0;startSize=0;swimlaneHead=0;swimlaneBody=0;strokeColor=inherit;top=0;left=0;bottom=0;right=0;collapsible=0;dropTarget=0;fillColor=none;points=[[0,0.5],[1,0.5]];portConstraint=eastwest;fontSize=16;" vertex="1" parent="AVxkR-Yl-Eb912hp2TKM-23">
          <mxGeometry width="219" height="40" as="geometry" />
        </mxCell>
        <mxCell id="AVxkR-Yl-Eb912hp2TKM-25" value="OpId" style="shape=partialRectangle;html=1;whiteSpace=wrap;connectable=0;strokeColor=inherit;overflow=hidden;fillColor=none;top=0;left=0;bottom=0;right=0;pointerEvents=1;fontSize=16;" vertex="1" parent="AVxkR-Yl-Eb912hp2TKM-24">
          <mxGeometry width="50" height="40" as="geometry">
            <mxRectangle width="50" height="40" as="alternateBounds" />
          </mxGeometry>
        </mxCell>
        <mxCell id="AVxkR-Yl-Eb912hp2TKM-26" value="BundleItem" style="shape=partialRectangle;html=1;whiteSpace=wrap;connectable=0;strokeColor=inherit;overflow=hidden;fillColor=none;top=0;left=0;bottom=0;right=0;pointerEvents=1;fontSize=16;" vertex="1" parent="AVxkR-Yl-Eb912hp2TKM-24">
          <mxGeometry x="50" width="130" height="40" as="geometry">
            <mxRectangle width="130" height="40" as="alternateBounds" />
          </mxGeometry>
        </mxCell>
        <mxCell id="AVxkR-Yl-Eb912hp2TKM-41" value="..." style="shape=partialRectangle;html=1;whiteSpace=wrap;connectable=0;strokeColor=inherit;overflow=hidden;fillColor=none;top=0;left=0;bottom=0;right=0;pointerEvents=1;fontSize=16;" vertex="1" parent="AVxkR-Yl-Eb912hp2TKM-24">
          <mxGeometry x="180" width="39" height="40" as="geometry">
            <mxRectangle width="39" height="40" as="alternateBounds" />
          </mxGeometry>
        </mxCell>
        <mxCell id="AVxkR-Yl-Eb912hp2TKM-28" value="" style="endArrow=none;html=1;rounded=0;strokeWidth=3;" edge="1" parent="1">
          <mxGeometry width="50" height="50" relative="1" as="geometry">
            <mxPoint x="530" y="220" as="sourcePoint" />
            <mxPoint x="530" y="160" as="targetPoint" />
          </mxGeometry>
        </mxCell>
        <mxCell id="AVxkR-Yl-Eb912hp2TKM-29" value="" style="shape=table;startSize=0;container=1;collapsible=0;childLayout=tableLayout;fontSize=16;" vertex="1" parent="1">
          <mxGeometry x="400" y="290" width="350" height="40" as="geometry" />
        </mxCell>
        <mxCell id="AVxkR-Yl-Eb912hp2TKM-30" value="" style="shape=tableRow;horizontal=0;startSize=0;swimlaneHead=0;swimlaneBody=0;strokeColor=inherit;top=0;left=0;bottom=0;right=0;collapsible=0;dropTarget=0;fillColor=none;points=[[0,0.5],[1,0.5]];portConstraint=eastwest;fontSize=16;" vertex="1" parent="AVxkR-Yl-Eb912hp2TKM-29">
          <mxGeometry width="350" height="40" as="geometry" />
        </mxCell>
        <mxCell id="AVxkR-Yl-Eb912hp2TKM-31" value="N" style="shape=partialRectangle;html=1;whiteSpace=wrap;connectable=0;strokeColor=inherit;overflow=hidden;fillColor=none;top=0;left=0;bottom=0;right=0;pointerEvents=1;fontSize=16;" vertex="1" parent="AVxkR-Yl-Eb912hp2TKM-30">
          <mxGeometry width="57" height="40" as="geometry">
            <mxRectangle width="57" height="40" as="alternateBounds" />
          </mxGeometry>
        </mxCell>
        <mxCell id="AVxkR-Yl-Eb912hp2TKM-38" value="outn" style="shape=partialRectangle;html=1;whiteSpace=wrap;connectable=0;strokeColor=inherit;overflow=hidden;fillColor=none;top=0;left=0;bottom=0;right=0;pointerEvents=1;fontSize=16;" vertex="1" parent="AVxkR-Yl-Eb912hp2TKM-30">
          <mxGeometry x="57" width="57" height="40" as="geometry">
            <mxRectangle width="57" height="40" as="alternateBounds" />
          </mxGeometry>
        </mxCell>
        <mxCell id="AVxkR-Yl-Eb912hp2TKM-37" value="outn" style="shape=partialRectangle;html=1;whiteSpace=wrap;connectable=0;strokeColor=inherit;overflow=hidden;fillColor=none;top=0;left=0;bottom=0;right=0;pointerEvents=1;fontSize=16;" vertex="1" parent="AVxkR-Yl-Eb912hp2TKM-30">
          <mxGeometry x="114" width="56" height="40" as="geometry">
            <mxRectangle width="56" height="40" as="alternateBounds" />
          </mxGeometry>
        </mxCell>
        <mxCell id="AVxkR-Yl-Eb912hp2TKM-36" value="..." style="shape=partialRectangle;html=1;whiteSpace=wrap;connectable=0;strokeColor=inherit;overflow=hidden;fillColor=none;top=0;left=0;bottom=0;right=0;pointerEvents=1;fontSize=16;" vertex="1" parent="AVxkR-Yl-Eb912hp2TKM-30">
          <mxGeometry x="170" width="50" height="40" as="geometry">
            <mxRectangle width="50" height="40" as="alternateBounds" />
          </mxGeometry>
        </mxCell>
        <mxCell id="AVxkR-Yl-Eb912hp2TKM-33" value="1" style="shape=partialRectangle;html=1;whiteSpace=wrap;connectable=0;strokeColor=inherit;overflow=hidden;fillColor=none;top=0;left=0;bottom=0;right=0;pointerEvents=1;fontSize=16;" vertex="1" parent="AVxkR-Yl-Eb912hp2TKM-30">
          <mxGeometry x="220" width="45" height="40" as="geometry">
            <mxRectangle width="45" height="40" as="alternateBounds" />
          </mxGeometry>
        </mxCell>
        <mxCell id="AVxkR-Yl-Eb912hp2TKM-32" value="Transition" style="shape=partialRectangle;html=1;whiteSpace=wrap;connectable=0;strokeColor=inherit;overflow=hidden;fillColor=none;top=0;left=0;bottom=0;right=0;pointerEvents=1;fontSize=16;" vertex="1" parent="AVxkR-Yl-Eb912hp2TKM-30">
          <mxGeometry x="265" width="85" height="40" as="geometry">
            <mxRectangle width="85" height="40" as="alternateBounds" />
          </mxGeometry>
        </mxCell>
        <mxCell id="AVxkR-Yl-Eb912hp2TKM-40" value="" style="endArrow=none;html=1;rounded=0;strokeWidth=3;" edge="1" parent="1">
          <mxGeometry width="50" height="50" relative="1" as="geometry">
            <mxPoint x="350" y="220" as="sourcePoint" />
            <mxPoint x="350" y="160" as="targetPoint" />
          </mxGeometry>
        </mxCell>
        <mxCell id="AVxkR-Yl-Eb912hp2TKM-42" value="" style="endArrow=none;html=1;rounded=0;strokeWidth=3;" edge="1" parent="1">
          <mxGeometry width="50" height="50" relative="1" as="geometry">
            <mxPoint x="710" y="220" as="sourcePoint" />
            <mxPoint x="710" y="160" as="targetPoint" />
          </mxGeometry>
        </mxCell>
        <mxCell id="AVxkR-Yl-Eb912hp2TKM-45" value="" style="endArrow=none;html=1;rounded=0;strokeWidth=3;" edge="1" parent="1">
          <mxGeometry width="50" height="50" relative="1" as="geometry">
            <mxPoint x="620" y="340" as="sourcePoint" />
            <mxPoint x="620" y="280" as="targetPoint" />
          </mxGeometry>
        </mxCell>
        <mxCell id="AVxkR-Yl-Eb912hp2TKM-46" value="" style="endArrow=none;html=1;rounded=0;exitX=0;exitY=0;exitDx=0;exitDy=0;entryX=0.433;entryY=1;entryDx=0;entryDy=0;entryPerimeter=0;" edge="1" parent="1" source="AVxkR-Yl-Eb912hp2TKM-44" target="AVxkR-Yl-Eb912hp2TKM-2">
          <mxGeometry width="50" height="50" relative="1" as="geometry">
            <mxPoint x="620" y="690" as="sourcePoint" />
            <mxPoint x="670" y="640" as="targetPoint" />
          </mxGeometry>
        </mxCell>
        <mxCell id="AVxkR-Yl-Eb912hp2TKM-47" value="" style="endArrow=none;html=1;rounded=0;exitX=1.003;exitY=0.025;exitDx=0;exitDy=0;exitPerimeter=0;" edge="1" parent="1" source="AVxkR-Yl-Eb912hp2TKM-30">
          <mxGeometry width="50" height="50" relative="1" as="geometry">
            <mxPoint x="352" y="287" as="sourcePoint" />
            <mxPoint x="530" y="210" as="targetPoint" />
          </mxGeometry>
        </mxCell>
        <mxCell id="AVxkR-Yl-Eb912hp2TKM-48" value="" style="shape=table;startSize=0;container=1;collapsible=0;childLayout=tableLayout;fontSize=16;" vertex="1" parent="1">
          <mxGeometry x="185" y="80" width="250" height="40" as="geometry" />
        </mxCell>
        <mxCell id="AVxkR-Yl-Eb912hp2TKM-49" value="" style="shape=tableRow;horizontal=0;startSize=0;swimlaneHead=0;swimlaneBody=0;strokeColor=inherit;top=0;left=0;bottom=0;right=0;collapsible=0;dropTarget=0;fillColor=none;points=[[0,0.5],[1,0.5]];portConstraint=eastwest;fontSize=16;" vertex="1" parent="AVxkR-Yl-Eb912hp2TKM-48">
          <mxGeometry width="250" height="40" as="geometry" />
        </mxCell>
        <mxCell id="AVxkR-Yl-Eb912hp2TKM-51" value="Anchor" style="shape=partialRectangle;html=1;whiteSpace=wrap;connectable=0;strokeColor=inherit;overflow=hidden;fillColor=none;top=0;left=0;bottom=0;right=0;pointerEvents=1;fontSize=16;" vertex="1" parent="AVxkR-Yl-Eb912hp2TKM-49">
          <mxGeometry width="110" height="40" as="geometry">
            <mxRectangle width="110" height="40" as="alternateBounds" />
          </mxGeometry>
        </mxCell>
        <mxCell id="AVxkR-Yl-Eb912hp2TKM-52" value="TransitionBundle" style="shape=partialRectangle;html=1;whiteSpace=wrap;connectable=0;strokeColor=inherit;overflow=hidden;fillColor=none;top=0;left=0;bottom=0;right=0;pointerEvents=1;fontSize=16;" vertex="1" parent="AVxkR-Yl-Eb912hp2TKM-49">
          <mxGeometry x="110" width="140" height="40" as="geometry">
            <mxRectangle width="140" height="40" as="alternateBounds" />
          </mxGeometry>
        </mxCell>
        <mxCell id="AVxkR-Yl-Eb912hp2TKM-53" value="AnchoredBundle" style="text;strokeColor=none;fillColor=none;html=1;fontSize=24;fontStyle=1;verticalAlign=middle;align=left;" vertex="1" parent="1">
          <mxGeometry x="235" y="30" width="210" height="40" as="geometry" />
        </mxCell>
        <mxCell id="AVxkR-Yl-Eb912hp2TKM-54" value="" style="shape=table;startSize=0;container=1;collapsible=0;childLayout=tableLayout;fontSize=16;" vertex="1" parent="1">
          <mxGeometry x="30" y="170" width="260" height="40" as="geometry" />
        </mxCell>
        <mxCell id="AVxkR-Yl-Eb912hp2TKM-55" value="" style="shape=tableRow;horizontal=0;startSize=0;swimlaneHead=0;swimlaneBody=0;strokeColor=inherit;top=0;left=0;bottom=0;right=0;collapsible=0;dropTarget=0;fillColor=none;points=[[0,0.5],[1,0.5]];portConstraint=eastwest;fontSize=16;" vertex="1" parent="AVxkR-Yl-Eb912hp2TKM-54">
          <mxGeometry width="260" height="40" as="geometry" />
        </mxCell>
        <mxCell id="AVxkR-Yl-Eb912hp2TKM-56" value="TxId" style="shape=partialRectangle;html=1;whiteSpace=wrap;connectable=0;strokeColor=inherit;overflow=hidden;fillColor=none;top=0;left=0;bottom=0;right=0;pointerEvents=1;fontSize=16;" vertex="1" parent="AVxkR-Yl-Eb912hp2TKM-55">
          <mxGeometry width="50" height="40" as="geometry">
            <mxRectangle width="50" height="40" as="alternateBounds" />
          </mxGeometry>
        </mxCell>
        <mxCell id="AVxkR-Yl-Eb912hp2TKM-57" value="MPC Proof" style="shape=partialRectangle;html=1;whiteSpace=wrap;connectable=0;strokeColor=inherit;overflow=hidden;fillColor=none;top=0;left=0;bottom=0;right=0;pointerEvents=1;fontSize=16;" vertex="1" parent="AVxkR-Yl-Eb912hp2TKM-55">
          <mxGeometry x="50" width="110" height="40" as="geometry">
            <mxRectangle width="110" height="40" as="alternateBounds" />
          </mxGeometry>
        </mxCell>
        <mxCell id="AVxkR-Yl-Eb912hp2TKM-58" value="DBC Proof" style="shape=partialRectangle;html=1;whiteSpace=wrap;connectable=0;strokeColor=inherit;overflow=hidden;fillColor=none;top=0;left=0;bottom=0;right=0;pointerEvents=1;fontSize=16;" vertex="1" parent="AVxkR-Yl-Eb912hp2TKM-55">
          <mxGeometry x="160" width="100" height="40" as="geometry">
            <mxRectangle width="100" height="40" as="alternateBounds" />
          </mxGeometry>
        </mxCell>
        <mxCell id="AVxkR-Yl-Eb912hp2TKM-59" value="" style="endArrow=none;html=1;rounded=0;exitX=0;exitY=0;exitDx=0;exitDy=0;entryX=0.44;entryY=1;entryDx=0;entryDy=0;entryPerimeter=0;" edge="1" parent="1" source="AVxkR-Yl-Eb912hp2TKM-43" target="AVxkR-Yl-Eb912hp2TKM-49">
          <mxGeometry width="50" height="50" relative="1" as="geometry">
            <mxPoint x="350" y="280" as="sourcePoint" />
            <mxPoint x="406" y="220" as="targetPoint" />
          </mxGeometry>
        </mxCell>
        <mxCell id="AVxkR-Yl-Eb912hp2TKM-60" value="" style="endArrow=none;html=1;rounded=0;exitX=1;exitY=0;exitDx=0;exitDy=0;entryX=1;entryY=1;entryDx=0;entryDy=0;" edge="1" parent="1" source="AVxkR-Yl-Eb912hp2TKM-43" target="AVxkR-Yl-Eb912hp2TKM-48">
          <mxGeometry width="50" height="50" relative="1" as="geometry">
            <mxPoint x="310" y="170" as="sourcePoint" />
            <mxPoint x="300" y="130" as="targetPoint" />
          </mxGeometry>
        </mxCell>
        <mxCell id="AVxkR-Yl-Eb912hp2TKM-61" value="" style="endArrow=none;html=1;rounded=0;exitX=0.004;exitY=-0.05;exitDx=0;exitDy=0;entryX=-0.004;entryY=1;entryDx=0;entryDy=0;entryPerimeter=0;exitPerimeter=0;" edge="1" parent="1" source="AVxkR-Yl-Eb912hp2TKM-55" target="AVxkR-Yl-Eb912hp2TKM-49">
          <mxGeometry width="50" height="50" relative="1" as="geometry">
            <mxPoint x="310" y="170" as="sourcePoint" />
            <mxPoint x="300" y="130" as="targetPoint" />
          </mxGeometry>
        </mxCell>
        <mxCell id="AVxkR-Yl-Eb912hp2TKM-62" value="" style="endArrow=none;html=1;rounded=0;exitX=1;exitY=0;exitDx=0;exitDy=0;entryX=0.44;entryY=1;entryDx=0;entryDy=0;entryPerimeter=0;exitPerimeter=0;" edge="1" parent="1" source="AVxkR-Yl-Eb912hp2TKM-55" target="AVxkR-Yl-Eb912hp2TKM-49">
          <mxGeometry width="50" height="50" relative="1" as="geometry">
            <mxPoint x="41" y="178" as="sourcePoint" />
            <mxPoint x="189" y="130" as="targetPoint" />
          </mxGeometry>
        </mxCell>
        <mxCell id="AVxkR-Yl-Eb912hp2TKM-63" value="" style="shape=table;startSize=0;container=1;collapsible=0;childLayout=tableLayout;fontSize=16;" vertex="1" parent="1">
          <mxGeometry x="370" y="530" width="220" height="40" as="geometry" />
        </mxCell>
        <mxCell id="AVxkR-Yl-Eb912hp2TKM-64" value="" style="shape=tableRow;horizontal=0;startSize=0;swimlaneHead=0;swimlaneBody=0;strokeColor=inherit;top=0;left=0;bottom=0;right=0;collapsible=0;dropTarget=0;fillColor=none;points=[[0,0.5],[1,0.5]];portConstraint=eastwest;fontSize=16;" vertex="1" parent="AVxkR-Yl-Eb912hp2TKM-63">
          <mxGeometry width="220" height="40" as="geometry" />
        </mxCell>
        <mxCell id="AVxkR-Yl-Eb912hp2TKM-65" value="1" style="shape=partialRectangle;html=1;whiteSpace=wrap;connectable=0;strokeColor=inherit;overflow=hidden;fillColor=none;top=0;left=0;bottom=0;right=0;pointerEvents=1;fontSize=16;" vertex="1" parent="AVxkR-Yl-Eb912hp2TKM-64">
          <mxGeometry width="30" height="40" as="geometry">
            <mxRectangle width="30" height="40" as="alternateBounds" />
          </mxGeometry>
        </mxCell>
        <mxCell id="AVxkR-Yl-Eb912hp2TKM-90" value="0" style="shape=partialRectangle;html=1;whiteSpace=wrap;connectable=0;strokeColor=inherit;overflow=hidden;fillColor=none;top=0;left=0;bottom=0;right=0;pointerEvents=1;fontSize=16;" vertex="1" parent="AVxkR-Yl-Eb912hp2TKM-64">
          <mxGeometry x="30" width="30" height="40" as="geometry">
            <mxRectangle width="30" height="40" as="alternateBounds" />
          </mxGeometry>
        </mxCell>
        <mxCell id="AVxkR-Yl-Eb912hp2TKM-89" value="nonce" style="shape=partialRectangle;html=1;whiteSpace=wrap;connectable=0;strokeColor=inherit;overflow=hidden;fillColor=none;top=0;left=0;bottom=0;right=0;pointerEvents=1;fontSize=16;" vertex="1" parent="AVxkR-Yl-Eb912hp2TKM-64">
          <mxGeometry x="60" width="50" height="40" as="geometry">
            <mxRectangle width="50" height="40" as="alternateBounds" />
          </mxGeometry>
        </mxCell>
        <mxCell id="AVxkR-Yl-Eb912hp2TKM-70" value="InternalPk" style="shape=partialRectangle;html=1;whiteSpace=wrap;connectable=0;strokeColor=inherit;overflow=hidden;fillColor=none;top=0;left=0;bottom=0;right=0;pointerEvents=1;fontSize=16;" vertex="1" parent="AVxkR-Yl-Eb912hp2TKM-64">
          <mxGeometry x="110" width="110" height="40" as="geometry">
            <mxRectangle width="110" height="40" as="alternateBounds" />
          </mxGeometry>
        </mxCell>
        <mxCell id="AVxkR-Yl-Eb912hp2TKM-71" value="" style="rounded=0;whiteSpace=wrap;html=1;dashed=1;" vertex="1" parent="1">
          <mxGeometry x="400" y="360" width="220" height="60" as="geometry" />
        </mxCell>
        <mxCell id="AVxkR-Yl-Eb912hp2TKM-72" value="" style="shape=table;startSize=0;container=1;collapsible=0;childLayout=tableLayout;fontSize=16;" vertex="1" parent="1">
          <mxGeometry x="400" y="370" width="330" height="40" as="geometry" />
        </mxCell>
        <mxCell id="AVxkR-Yl-Eb912hp2TKM-73" value="" style="shape=tableRow;horizontal=0;startSize=0;swimlaneHead=0;swimlaneBody=0;strokeColor=inherit;top=0;left=0;bottom=0;right=0;collapsible=0;dropTarget=0;fillColor=none;points=[[0,0.5],[1,0.5]];portConstraint=eastwest;fontSize=16;" vertex="1" parent="AVxkR-Yl-Eb912hp2TKM-72">
          <mxGeometry width="330" height="40" as="geometry" />
        </mxCell>
        <mxCell id="AVxkR-Yl-Eb912hp2TKM-74" value="N" style="shape=partialRectangle;html=1;whiteSpace=wrap;connectable=0;strokeColor=inherit;overflow=hidden;fillColor=none;top=0;left=0;bottom=0;right=0;pointerEvents=1;fontSize=16;" vertex="1" parent="AVxkR-Yl-Eb912hp2TKM-73">
          <mxGeometry width="57" height="40" as="geometry">
            <mxRectangle width="57" height="40" as="alternateBounds" />
          </mxGeometry>
        </mxCell>
        <mxCell id="AVxkR-Yl-Eb912hp2TKM-75" value="outn" style="shape=partialRectangle;html=1;whiteSpace=wrap;connectable=0;strokeColor=inherit;overflow=hidden;fillColor=none;top=0;left=0;bottom=0;right=0;pointerEvents=1;fontSize=16;" vertex="1" parent="AVxkR-Yl-Eb912hp2TKM-73">
          <mxGeometry x="57" width="57" height="40" as="geometry">
            <mxRectangle width="57" height="40" as="alternateBounds" />
          </mxGeometry>
        </mxCell>
        <mxCell id="AVxkR-Yl-Eb912hp2TKM-76" value="outn" style="shape=partialRectangle;html=1;whiteSpace=wrap;connectable=0;strokeColor=inherit;overflow=hidden;fillColor=none;top=0;left=0;bottom=0;right=0;pointerEvents=1;fontSize=16;" vertex="1" parent="AVxkR-Yl-Eb912hp2TKM-73">
          <mxGeometry x="114" width="56" height="40" as="geometry">
            <mxRectangle width="56" height="40" as="alternateBounds" />
          </mxGeometry>
        </mxCell>
        <mxCell id="AVxkR-Yl-Eb912hp2TKM-77" value="..." style="shape=partialRectangle;html=1;whiteSpace=wrap;connectable=0;strokeColor=inherit;overflow=hidden;fillColor=none;top=0;left=0;bottom=0;right=0;pointerEvents=1;fontSize=16;" vertex="1" parent="AVxkR-Yl-Eb912hp2TKM-73">
          <mxGeometry x="170" width="50" height="40" as="geometry">
            <mxRectangle width="50" height="40" as="alternateBounds" />
          </mxGeometry>
        </mxCell>
        <mxCell id="AVxkR-Yl-Eb912hp2TKM-78" value="0" style="shape=partialRectangle;html=1;whiteSpace=wrap;connectable=0;strokeColor=inherit;overflow=hidden;fillColor=none;top=0;left=0;bottom=0;right=0;pointerEvents=1;fontSize=16;" vertex="1" parent="AVxkR-Yl-Eb912hp2TKM-73">
          <mxGeometry x="220" width="45" height="40" as="geometry">
            <mxRectangle width="45" height="40" as="alternateBounds" />
          </mxGeometry>
        </mxCell>
        <mxCell id="AVxkR-Yl-Eb912hp2TKM-153" value="OpId" style="shape=partialRectangle;html=1;whiteSpace=wrap;connectable=0;strokeColor=inherit;overflow=hidden;fillColor=none;top=0;left=0;bottom=0;right=0;pointerEvents=1;fontSize=16;" vertex="1" parent="AVxkR-Yl-Eb912hp2TKM-73">
          <mxGeometry x="265" width="65" height="40" as="geometry">
            <mxRectangle width="65" height="40" as="alternateBounds" />
          </mxGeometry>
        </mxCell>
        <mxCell id="AVxkR-Yl-Eb912hp2TKM-80" value="" style="endArrow=none;html=1;rounded=0;strokeWidth=3;" edge="1" parent="1">
          <mxGeometry width="50" height="50" relative="1" as="geometry">
            <mxPoint x="620" y="420" as="sourcePoint" />
            <mxPoint x="620" y="360" as="targetPoint" />
          </mxGeometry>
        </mxCell>
        <mxCell id="AVxkR-Yl-Eb912hp2TKM-81" value="" style="shape=table;startSize=0;container=1;collapsible=0;childLayout=tableLayout;fontSize=16;" vertex="1" parent="1">
          <mxGeometry x="370" y="470" width="30" height="40" as="geometry" />
        </mxCell>
        <mxCell id="AVxkR-Yl-Eb912hp2TKM-82" value="" style="shape=tableRow;horizontal=0;startSize=0;swimlaneHead=0;swimlaneBody=0;strokeColor=inherit;top=0;left=0;bottom=0;right=0;collapsible=0;dropTarget=0;fillColor=none;points=[[0,0.5],[1,0.5]];portConstraint=eastwest;fontSize=16;" vertex="1" parent="AVxkR-Yl-Eb912hp2TKM-81">
          <mxGeometry width="30" height="40" as="geometry" />
        </mxCell>
        <mxCell id="AVxkR-Yl-Eb912hp2TKM-83" value="0" style="shape=partialRectangle;html=1;whiteSpace=wrap;connectable=0;strokeColor=inherit;overflow=hidden;fillColor=none;top=0;left=0;bottom=0;right=0;pointerEvents=1;fontSize=16;" vertex="1" parent="AVxkR-Yl-Eb912hp2TKM-82">
          <mxGeometry width="30" height="40" as="geometry">
            <mxRectangle width="30" height="40" as="alternateBounds" />
          </mxGeometry>
        </mxCell>
        <mxCell id="AVxkR-Yl-Eb912hp2TKM-104" value="" style="shape=table;startSize=0;container=1;collapsible=0;childLayout=tableLayout;fontSize=16;" vertex="1" parent="1">
          <mxGeometry x="370" y="590" width="380" height="40" as="geometry" />
        </mxCell>
        <mxCell id="AVxkR-Yl-Eb912hp2TKM-105" value="" style="shape=tableRow;horizontal=0;startSize=0;swimlaneHead=0;swimlaneBody=0;strokeColor=inherit;top=0;left=0;bottom=0;right=0;collapsible=0;dropTarget=0;fillColor=none;points=[[0,0.5],[1,0.5]];portConstraint=eastwest;fontSize=16;" vertex="1" parent="AVxkR-Yl-Eb912hp2TKM-104">
          <mxGeometry width="380" height="40" as="geometry" />
        </mxCell>
        <mxCell id="AVxkR-Yl-Eb912hp2TKM-106" value="1" style="shape=partialRectangle;html=1;whiteSpace=wrap;connectable=0;strokeColor=inherit;overflow=hidden;fillColor=none;top=0;left=0;bottom=0;right=0;pointerEvents=1;fontSize=16;" vertex="1" parent="AVxkR-Yl-Eb912hp2TKM-105">
          <mxGeometry width="30" height="40" as="geometry">
            <mxRectangle width="30" height="40" as="alternateBounds" />
          </mxGeometry>
        </mxCell>
        <mxCell id="AVxkR-Yl-Eb912hp2TKM-107" value="1" style="shape=partialRectangle;html=1;whiteSpace=wrap;connectable=0;strokeColor=inherit;overflow=hidden;fillColor=none;top=0;left=0;bottom=0;right=0;pointerEvents=1;fontSize=16;" vertex="1" parent="AVxkR-Yl-Eb912hp2TKM-105">
          <mxGeometry x="30" width="30" height="40" as="geometry">
            <mxRectangle width="30" height="40" as="alternateBounds" />
          </mxGeometry>
        </mxCell>
        <mxCell id="AVxkR-Yl-Eb912hp2TKM-108" value="TapretNodePartner" style="shape=partialRectangle;html=1;whiteSpace=wrap;connectable=0;strokeColor=inherit;overflow=hidden;fillColor=none;top=0;left=0;bottom=0;right=0;pointerEvents=1;fontSize=16;" vertex="1" parent="AVxkR-Yl-Eb912hp2TKM-105">
          <mxGeometry x="60" width="160" height="40" as="geometry">
            <mxRectangle width="160" height="40" as="alternateBounds" />
          </mxGeometry>
        </mxCell>
        <mxCell id="AVxkR-Yl-Eb912hp2TKM-109" value="nonce" style="shape=partialRectangle;html=1;whiteSpace=wrap;connectable=0;strokeColor=inherit;overflow=hidden;fillColor=none;top=0;left=0;bottom=0;right=0;pointerEvents=1;fontSize=16;" vertex="1" parent="AVxkR-Yl-Eb912hp2TKM-105">
          <mxGeometry x="220" width="50" height="40" as="geometry">
            <mxRectangle width="50" height="40" as="alternateBounds" />
          </mxGeometry>
        </mxCell>
        <mxCell id="AVxkR-Yl-Eb912hp2TKM-110" value="InternalPk" style="shape=partialRectangle;html=1;whiteSpace=wrap;connectable=0;strokeColor=inherit;overflow=hidden;fillColor=none;top=0;left=0;bottom=0;right=0;pointerEvents=1;fontSize=16;" vertex="1" parent="AVxkR-Yl-Eb912hp2TKM-105">
          <mxGeometry x="270" width="110" height="40" as="geometry">
            <mxRectangle width="110" height="40" as="alternateBounds" />
          </mxGeometry>
        </mxCell>
        <mxCell id="AVxkR-Yl-Eb912hp2TKM-111" value="" style="shape=curlyBracket;whiteSpace=wrap;html=1;rounded=1;labelPosition=left;verticalLabelPosition=middle;align=right;verticalAlign=middle;" vertex="1" parent="1">
          <mxGeometry x="370" y="290" width="20" height="120" as="geometry" />
        </mxCell>
        <mxCell id="AVxkR-Yl-Eb912hp2TKM-112" value="" style="shape=curlyBracket;whiteSpace=wrap;html=1;rounded=1;labelPosition=left;verticalLabelPosition=middle;align=right;verticalAlign=middle;" vertex="1" parent="1">
          <mxGeometry x="340" y="470" width="20" height="160" as="geometry" />
        </mxCell>
        <mxCell id="AVxkR-Yl-Eb912hp2TKM-113" value="Opret" style="text;strokeColor=none;fillColor=none;align=left;verticalAlign=top;spacingLeft=4;spacingRight=4;overflow=hidden;rotatable=0;points=[[0,0.5],[1,0.5]];portConstraint=eastwest;whiteSpace=wrap;html=1;" vertex="1" parent="1">
          <mxGeometry x="410" y="477" width="60" height="26" as="geometry" />
        </mxCell>
        <mxCell id="AVxkR-Yl-Eb912hp2TKM-114" value="Tapret level 0" style="text;strokeColor=none;fillColor=none;align=left;verticalAlign=top;spacingLeft=4;spacingRight=4;overflow=hidden;rotatable=0;points=[[0,0.5],[1,0.5]];portConstraint=eastwest;whiteSpace=wrap;html=1;" vertex="1" parent="1">
          <mxGeometry x="600" y="537" width="100" height="26" as="geometry" />
        </mxCell>
        <mxCell id="AVxkR-Yl-Eb912hp2TKM-115" value="Tapret level 1" style="text;strokeColor=none;fillColor=none;align=left;verticalAlign=top;spacingLeft=4;spacingRight=4;overflow=hidden;rotatable=0;points=[[0,0.5],[1,0.5]];portConstraint=eastwest;whiteSpace=wrap;html=1;" vertex="1" parent="1">
          <mxGeometry x="760" y="597" width="90" height="26" as="geometry" />
        </mxCell>
        <mxCell id="AVxkR-Yl-Eb912hp2TKM-116" value="" style="shape=table;startSize=0;container=1;collapsible=0;childLayout=tableLayout;fontSize=16;" vertex="1" parent="1">
          <mxGeometry x="430" y="670" width="160" height="40" as="geometry" />
        </mxCell>
        <mxCell id="AVxkR-Yl-Eb912hp2TKM-117" value="" style="shape=tableRow;horizontal=0;startSize=0;swimlaneHead=0;swimlaneBody=0;strokeColor=inherit;top=0;left=0;bottom=0;right=0;collapsible=0;dropTarget=0;fillColor=none;points=[[0,0.5],[1,0.5]];portConstraint=eastwest;fontSize=16;" vertex="1" parent="AVxkR-Yl-Eb912hp2TKM-116">
          <mxGeometry width="160" height="40" as="geometry" />
        </mxCell>
        <mxCell id="AVxkR-Yl-Eb912hp2TKM-118" value="0" style="shape=partialRectangle;html=1;whiteSpace=wrap;connectable=0;strokeColor=inherit;overflow=hidden;fillColor=none;top=0;left=0;bottom=0;right=0;pointerEvents=1;fontSize=16;" vertex="1" parent="AVxkR-Yl-Eb912hp2TKM-117">
          <mxGeometry width="30" height="40" as="geometry">
            <mxRectangle width="30" height="40" as="alternateBounds" />
          </mxGeometry>
        </mxCell>
        <mxCell id="AVxkR-Yl-Eb912hp2TKM-121" value="TapNodeHash" style="shape=partialRectangle;html=1;whiteSpace=wrap;connectable=0;strokeColor=inherit;overflow=hidden;fillColor=none;top=0;left=0;bottom=0;right=0;pointerEvents=1;fontSize=16;" vertex="1" parent="AVxkR-Yl-Eb912hp2TKM-117">
          <mxGeometry x="30" width="130" height="40" as="geometry">
            <mxRectangle width="130" height="40" as="alternateBounds" />
          </mxGeometry>
        </mxCell>
        <mxCell id="AVxkR-Yl-Eb912hp2TKM-122" value="Left node" style="text;strokeColor=none;fillColor=none;align=left;verticalAlign=top;spacingLeft=4;spacingRight=4;overflow=hidden;rotatable=0;points=[[0,0.5],[1,0.5]];portConstraint=eastwest;whiteSpace=wrap;html=1;" vertex="1" parent="1">
          <mxGeometry x="600" y="677" width="100" height="26" as="geometry" />
        </mxCell>
        <mxCell id="AVxkR-Yl-Eb912hp2TKM-123" value="" style="shape=table;startSize=0;container=1;collapsible=0;childLayout=tableLayout;fontSize=16;" vertex="1" parent="1">
          <mxGeometry x="430" y="730" width="250" height="40" as="geometry" />
        </mxCell>
        <mxCell id="AVxkR-Yl-Eb912hp2TKM-124" value="" style="shape=tableRow;horizontal=0;startSize=0;swimlaneHead=0;swimlaneBody=0;strokeColor=inherit;top=0;left=0;bottom=0;right=0;collapsible=0;dropTarget=0;fillColor=none;points=[[0,0.5],[1,0.5]];portConstraint=eastwest;fontSize=16;" vertex="1" parent="AVxkR-Yl-Eb912hp2TKM-123">
          <mxGeometry width="250" height="40" as="geometry" />
        </mxCell>
        <mxCell id="AVxkR-Yl-Eb912hp2TKM-125" value="1" style="shape=partialRectangle;html=1;whiteSpace=wrap;connectable=0;strokeColor=inherit;overflow=hidden;fillColor=none;top=0;left=0;bottom=0;right=0;pointerEvents=1;fontSize=16;" vertex="1" parent="AVxkR-Yl-Eb912hp2TKM-124">
          <mxGeometry width="30" height="40" as="geometry">
            <mxRectangle width="30" height="40" as="alternateBounds" />
          </mxGeometry>
        </mxCell>
        <mxCell id="AVxkR-Yl-Eb912hp2TKM-128" value="Leaf ver" style="shape=partialRectangle;html=1;whiteSpace=wrap;connectable=0;strokeColor=inherit;overflow=hidden;fillColor=none;top=0;left=0;bottom=0;right=0;pointerEvents=1;fontSize=16;" vertex="1" parent="AVxkR-Yl-Eb912hp2TKM-124">
          <mxGeometry x="30" width="80" height="40" as="geometry">
            <mxRectangle width="80" height="40" as="alternateBounds" />
          </mxGeometry>
        </mxCell>
        <mxCell id="AVxkR-Yl-Eb912hp2TKM-129" value="N" style="shape=partialRectangle;html=1;whiteSpace=wrap;connectable=0;strokeColor=inherit;overflow=hidden;fillColor=none;top=0;left=0;bottom=0;right=0;pointerEvents=1;fontSize=16;" vertex="1" parent="AVxkR-Yl-Eb912hp2TKM-124">
          <mxGeometry x="110" width="40" height="40" as="geometry">
            <mxRectangle width="40" height="40" as="alternateBounds" />
          </mxGeometry>
        </mxCell>
        <mxCell id="AVxkR-Yl-Eb912hp2TKM-126" value="Script..." style="shape=partialRectangle;html=1;whiteSpace=wrap;connectable=0;strokeColor=inherit;overflow=hidden;fillColor=none;top=0;left=0;bottom=0;right=0;pointerEvents=1;fontSize=16;" vertex="1" parent="AVxkR-Yl-Eb912hp2TKM-124">
          <mxGeometry x="150" width="100" height="40" as="geometry">
            <mxRectangle width="100" height="40" as="alternateBounds" />
          </mxGeometry>
        </mxCell>
        <mxCell id="AVxkR-Yl-Eb912hp2TKM-127" value="Right leaf" style="text;strokeColor=none;fillColor=none;align=left;verticalAlign=top;spacingLeft=4;spacingRight=4;overflow=hidden;rotatable=0;points=[[0,0.5],[1,0.5]];portConstraint=eastwest;whiteSpace=wrap;html=1;" vertex="1" parent="1">
          <mxGeometry x="690" y="737" width="100" height="26" as="geometry" />
        </mxCell>
        <mxCell id="AVxkR-Yl-Eb912hp2TKM-133" value="" style="shape=table;startSize=0;container=1;collapsible=0;childLayout=tableLayout;fontSize=16;" vertex="1" parent="1">
          <mxGeometry x="430" y="790" width="290" height="40" as="geometry" />
        </mxCell>
        <mxCell id="AVxkR-Yl-Eb912hp2TKM-134" value="" style="shape=tableRow;horizontal=0;startSize=0;swimlaneHead=0;swimlaneBody=0;strokeColor=inherit;top=0;left=0;bottom=0;right=0;collapsible=0;dropTarget=0;fillColor=none;points=[[0,0.5],[1,0.5]];portConstraint=eastwest;fontSize=16;" vertex="1" parent="AVxkR-Yl-Eb912hp2TKM-133">
          <mxGeometry width="290" height="40" as="geometry" />
        </mxCell>
        <mxCell id="AVxkR-Yl-Eb912hp2TKM-135" value="2" style="shape=partialRectangle;html=1;whiteSpace=wrap;connectable=0;strokeColor=inherit;overflow=hidden;fillColor=none;top=0;left=0;bottom=0;right=0;pointerEvents=1;fontSize=16;" vertex="1" parent="AVxkR-Yl-Eb912hp2TKM-134">
          <mxGeometry width="30" height="40" as="geometry">
            <mxRectangle width="30" height="40" as="alternateBounds" />
          </mxGeometry>
        </mxCell>
        <mxCell id="AVxkR-Yl-Eb912hp2TKM-136" value="TapNodeHash" style="shape=partialRectangle;html=1;whiteSpace=wrap;connectable=0;strokeColor=inherit;overflow=hidden;fillColor=none;top=0;left=0;bottom=0;right=0;pointerEvents=1;fontSize=16;" vertex="1" parent="AVxkR-Yl-Eb912hp2TKM-134">
          <mxGeometry x="30" width="130" height="40" as="geometry">
            <mxRectangle width="130" height="40" as="alternateBounds" />
          </mxGeometry>
        </mxCell>
        <mxCell id="AVxkR-Yl-Eb912hp2TKM-137" value="TapNodeHash" style="shape=partialRectangle;html=1;whiteSpace=wrap;connectable=0;strokeColor=inherit;overflow=hidden;fillColor=none;top=0;left=0;bottom=0;right=0;pointerEvents=1;fontSize=16;" vertex="1" parent="AVxkR-Yl-Eb912hp2TKM-134">
          <mxGeometry x="160" width="130" height="40" as="geometry">
            <mxRectangle width="130" height="40" as="alternateBounds" />
          </mxGeometry>
        </mxCell>
        <mxCell id="AVxkR-Yl-Eb912hp2TKM-138" value="Right branch" style="text;strokeColor=none;fillColor=none;align=left;verticalAlign=top;spacingLeft=4;spacingRight=4;overflow=hidden;rotatable=0;points=[[0,0.5],[1,0.5]];portConstraint=eastwest;whiteSpace=wrap;html=1;" vertex="1" parent="1">
          <mxGeometry x="730" y="797" width="100" height="26" as="geometry" />
        </mxCell>
        <mxCell id="AVxkR-Yl-Eb912hp2TKM-139" value="" style="shape=curlyBracket;whiteSpace=wrap;html=1;rounded=1;labelPosition=left;verticalLabelPosition=middle;align=right;verticalAlign=middle;" vertex="1" parent="1">
          <mxGeometry x="400" y="670" width="20" height="160" as="geometry" />
        </mxCell>
        <mxCell id="AVxkR-Yl-Eb912hp2TKM-140" value="" style="endArrow=none;html=1;rounded=0;entryX=0.158;entryY=1.025;entryDx=0;entryDy=0;entryPerimeter=0;exitX=0;exitY=-0.005;exitDx=0;exitDy=0;exitPerimeter=0;" edge="1" parent="1" source="AVxkR-Yl-Eb912hp2TKM-117" target="AVxkR-Yl-Eb912hp2TKM-104">
          <mxGeometry width="50" height="50" relative="1" as="geometry">
            <mxPoint x="430" y="670" as="sourcePoint" />
            <mxPoint x="656" y="250" as="targetPoint" />
          </mxGeometry>
        </mxCell>
        <mxCell id="AVxkR-Yl-Eb912hp2TKM-141" value="" style="endArrow=none;html=1;rounded=0;exitX=0.995;exitY=-0.005;exitDx=0;exitDy=0;exitPerimeter=0;" edge="1" parent="1">
          <mxGeometry width="50" height="50" relative="1" as="geometry">
            <mxPoint x="590.2" y="669.8" as="sourcePoint" />
            <mxPoint x="590" y="630" as="targetPoint" />
          </mxGeometry>
        </mxCell>
        <mxCell id="AVxkR-Yl-Eb912hp2TKM-142" value="" style="endArrow=none;html=1;rounded=0;exitX=-0.017;exitY=-0.042;exitDx=0;exitDy=0;exitPerimeter=0;entryX=0.617;entryY=1;entryDx=0;entryDy=0;entryPerimeter=0;" edge="1" parent="1" source="AVxkR-Yl-Eb912hp2TKM-82" target="AVxkR-Yl-Eb912hp2TKM-55">
          <mxGeometry width="50" height="50" relative="1" as="geometry">
            <mxPoint x="350" y="280" as="sourcePoint" />
            <mxPoint x="406" y="220" as="targetPoint" />
          </mxGeometry>
        </mxCell>
        <mxCell id="AVxkR-Yl-Eb912hp2TKM-143" value="" style="endArrow=none;html=1;rounded=0;exitX=1.011;exitY=0;exitDx=0;exitDy=0;exitPerimeter=0;entryX=0.998;entryY=1;entryDx=0;entryDy=0;entryPerimeter=0;" edge="1" parent="1" source="AVxkR-Yl-Eb912hp2TKM-82" target="AVxkR-Yl-Eb912hp2TKM-55">
          <mxGeometry width="50" height="50" relative="1" as="geometry">
            <mxPoint x="209" y="448" as="sourcePoint" />
            <mxPoint x="200" y="220" as="targetPoint" />
          </mxGeometry>
        </mxCell>
        <mxCell id="AVxkR-Yl-Eb912hp2TKM-144" value="" style="shape=table;startSize=0;container=1;collapsible=0;childLayout=tableLayout;fontSize=16;" vertex="1" parent="1">
          <mxGeometry y="870" width="410" height="40" as="geometry" />
        </mxCell>
        <mxCell id="AVxkR-Yl-Eb912hp2TKM-145" value="" style="shape=tableRow;horizontal=0;startSize=0;swimlaneHead=0;swimlaneBody=0;strokeColor=inherit;top=0;left=0;bottom=0;right=0;collapsible=0;dropTarget=0;fillColor=none;points=[[0,0.5],[1,0.5]];portConstraint=eastwest;fontSize=16;" vertex="1" parent="AVxkR-Yl-Eb912hp2TKM-144">
          <mxGeometry width="410" height="40" as="geometry" />
        </mxCell>
        <mxCell id="AVxkR-Yl-Eb912hp2TKM-146" value="pos" style="shape=partialRectangle;html=1;whiteSpace=wrap;connectable=0;strokeColor=inherit;overflow=hidden;fillColor=none;top=0;left=0;bottom=0;right=0;pointerEvents=1;fontSize=16;" vertex="1" parent="AVxkR-Yl-Eb912hp2TKM-145">
          <mxGeometry width="35" height="40" as="geometry">
            <mxRectangle width="35" height="40" as="alternateBounds" />
          </mxGeometry>
        </mxCell>
        <mxCell id="AVxkR-Yl-Eb912hp2TKM-149" value="N" style="shape=partialRectangle;html=1;whiteSpace=wrap;connectable=0;strokeColor=inherit;overflow=hidden;fillColor=none;top=0;left=0;bottom=0;right=0;pointerEvents=1;fontSize=16;" vertex="1" parent="AVxkR-Yl-Eb912hp2TKM-145">
          <mxGeometry x="35" width="35" height="40" as="geometry">
            <mxRectangle width="35" height="40" as="alternateBounds" />
          </mxGeometry>
        </mxCell>
        <mxCell id="AVxkR-Yl-Eb912hp2TKM-147" value="MerkleNode" style="shape=partialRectangle;html=1;whiteSpace=wrap;connectable=0;strokeColor=inherit;overflow=hidden;fillColor=none;top=0;left=0;bottom=0;right=0;pointerEvents=1;fontSize=16;" vertex="1" parent="AVxkR-Yl-Eb912hp2TKM-145">
          <mxGeometry x="70" width="153" height="40" as="geometry">
            <mxRectangle width="153" height="40" as="alternateBounds" />
          </mxGeometry>
        </mxCell>
        <mxCell id="AVxkR-Yl-Eb912hp2TKM-148" value="MerkleNode" style="shape=partialRectangle;html=1;whiteSpace=wrap;connectable=0;strokeColor=inherit;overflow=hidden;fillColor=none;top=0;left=0;bottom=0;right=0;pointerEvents=1;fontSize=16;" vertex="1" parent="AVxkR-Yl-Eb912hp2TKM-145">
          <mxGeometry x="223" width="152" height="40" as="geometry">
            <mxRectangle width="152" height="40" as="alternateBounds" />
          </mxGeometry>
        </mxCell>
        <mxCell id="AVxkR-Yl-Eb912hp2TKM-150" value="..." style="shape=partialRectangle;html=1;whiteSpace=wrap;connectable=0;strokeColor=inherit;overflow=hidden;fillColor=none;top=0;left=0;bottom=0;right=0;pointerEvents=1;fontSize=16;" vertex="1" parent="AVxkR-Yl-Eb912hp2TKM-145">
          <mxGeometry x="375" width="35" height="40" as="geometry">
            <mxRectangle width="35" height="40" as="alternateBounds" />
          </mxGeometry>
        </mxCell>
        <mxCell id="AVxkR-Yl-Eb912hp2TKM-151" value="" style="endArrow=none;html=1;rounded=0;exitX=0.001;exitY=0;exitDx=0;exitDy=0;exitPerimeter=0;entryX=0.194;entryY=1;entryDx=0;entryDy=0;entryPerimeter=0;" edge="1" parent="1" source="AVxkR-Yl-Eb912hp2TKM-145" target="AVxkR-Yl-Eb912hp2TKM-55">
          <mxGeometry width="50" height="50" relative="1" as="geometry">
            <mxPoint x="209" y="448" as="sourcePoint" />
            <mxPoint x="200" y="220" as="targetPoint" />
          </mxGeometry>
        </mxCell>
        <mxCell id="AVxkR-Yl-Eb912hp2TKM-154" value="" style="shape=flexArrow;endArrow=classic;startArrow=classic;html=1;rounded=0;width=20.833333333333336;endSize=4.441666666666667;startSize=4.441666666666667;" edge="1" parent="1">
          <mxGeometry width="100" height="100" relative="1" as="geometry">
            <mxPoint x="700" y="370" as="sourcePoint" />
            <mxPoint x="700" y="330" as="targetPoint" />
          </mxGeometry>
        </mxCell>
        <mxCell id="AVxkR-Yl-Eb912hp2TKM-155" value="Revealed" style="text;strokeColor=none;fillColor=none;align=left;verticalAlign=top;spacingLeft=4;spacingRight=4;overflow=hidden;rotatable=0;points=[[0,0.5],[1,0.5]];portConstraint=eastwest;whiteSpace=wrap;html=1;" vertex="1" parent="1">
          <mxGeometry x="760" y="297" width="60" height="26" as="geometry" />
        </mxCell>
        <mxCell id="AVxkR-Yl-Eb912hp2TKM-156" value="Concealed" style="text;strokeColor=none;fillColor=none;align=left;verticalAlign=top;spacingLeft=4;spacingRight=4;overflow=hidden;rotatable=0;points=[[0,0.5],[1,0.5]];portConstraint=eastwest;whiteSpace=wrap;html=1;" vertex="1" parent="1">
          <mxGeometry x="740" y="377" width="80" height="26" as="geometry" />
        </mxCell>
      </root>
    </mxGraphModel>
  </diagram>
</mxfile>
